<?xml version="1.0" encoding="utf-8"?>
<!-- Generator: Adobe Illustrator 22.0.1, SVG Export Plug-In . SVG Version: 6.00 Build 0)  -->
<svg version="1.1" id="Capa_1" xmlns="http://www.w3.org/2000/svg" xmlns:xlink="http://www.w3.org/1999/xlink" x="0px" y="0px"
	 viewBox="0 0 99 99" style="enable-background:new 0 0 99 99;" xml:space="preserve">
<g>
	<path d="M4.6,22.2c0-0.4-0.2-0.8-0.4-1.2c-0.2-0.4-0.4-0.7-0.5-1.1c-0.1-0.4-0.2-0.8-0.3-1.3c0-0.5-0.1-0.9-0.2-1.3
		c-0.2-1-0.3-1.9-0.3-2.9c0-1,0-2,0-3.1c0-1.4,0.3-2.3,0.9-2.7c0.6-0.4,1.6-0.5,2.9-0.2c0.5,0.1,1,0.2,1.4,0.4C8.6,9,9,9.2,9.5,9.4
		c0.5,0.2,0.9,0.4,1.4,0.5c0.5,0.1,1,0.1,1.5,0c0.5-0.1,0.8-0.3,1.1-0.5c0.3-0.3,0.7-0.5,1.2-0.5c0.6-0.1,1.3-0.1,2,0
		c0.7,0.1,1.4,0.3,2,0.3C19.9,9.2,21,9.4,22,9.6c1,0.2,2.1,0.1,3.2-0.3C26.1,9,26.9,8.9,27.9,9c0.9,0.1,1.8,0.2,2.7,0.4
		c0.9,0.2,1.8,0.4,2.7,0.6c0.9,0.2,1.8,0.3,2.7,0.3c1,0,2-0.1,2.9-0.4c0.9-0.3,1.9-0.4,2.9-0.3c1,0.1,1.9,0.1,2.8,0
		c0.9-0.1,1.8-0.2,2.8-0.4c1-0.2,1.9-0.3,2.7-0.3c0.9,0,1.7,0.3,2.5,1c0.9,0.7,1.5,1.4,1.7,2c0.3,0.7,0.4,1.5,0.4,2.6
		c-0.1,1-0.1,2,0,3s0,2.1-0.2,3c-0.3,1.9-0.6,3.7-0.9,5.4c-0.3,1.7-0.4,3.6-0.2,5.5c0.1,0.9,0.2,1.8,0.4,2.8c0.2,1,0.1,1.9-0.2,2.8
		c-0.1,0.4-0.4,0.8-0.8,1.2c-0.4,0.4-0.9,0.7-1.3,0.9c-0.5,0.2-0.9,0.3-1.3,0.3c-0.4,0-0.5-0.3-0.5-0.8v-0.1c0-0.6-0.1-1.2-0.3-1.7
		c-0.2-0.5-0.4-1-0.4-1.6c-0.1-0.6-0.3-1.1-0.5-1.5c-0.2-0.4-0.4-1-0.5-1.6c-0.1-1.1-0.4-2-0.8-2.7c-0.4-0.7-0.9-1.1-1.4-1.3
		c-0.5-0.2-1.1-0.3-1.7-0.1c-0.6,0.2-1.2,0.5-1.8,0.9c-0.5,0.4-0.9,0.8-1.3,1.2c-0.4,0.5-0.7,1-1,1.6c-0.8,1.8-1.2,3.6-1.2,5.4
		s0,3.6-0.1,5.4c0,1.1-0.1,2.3-0.2,3.4c-0.1,1.1-0.2,2.2-0.2,3.3c0,1.1,0,2.2,0.1,3.3c0.1,1.1,0.3,2.2,0.6,3.3
		c0.3,1.1,0.6,2.2,0.8,3.5c0.2,1.3,0.1,2.4-0.5,3.5c-0.4,0.7-0.9,1.2-1.5,1.6c-0.7,0.4-1.2,0.9-1.5,1.5c-0.2,0.4-0.4,0.8-0.4,1.3
		c-0.1,0.5-0.1,0.9,0,1.4c0,0.5,0.1,1,0.1,1.4c0,0.5,0,0.9,0,1.4c0,0.5-0.1,1-0.3,1.6s-0.4,1.1-0.8,1.4c-0.3,0.2-0.6,0.3-0.9,0.3
		c-0.3,0-0.5-0.2-0.7-0.4s-0.4-0.5-0.5-0.9c-0.2-0.3-0.3-0.6-0.3-0.9c-0.1-0.5-0.1-0.9-0.1-1.3c0-0.4,0.1-0.8,0.2-1.2
		s0.2-0.8,0.3-1.2c0.1-0.4,0.1-0.8,0.1-1.3c0-0.4-0.1-0.7-0.2-0.9c-0.1-0.2-0.3-0.5-0.4-0.8c-0.2-0.4-0.4-0.9-0.4-1.4
		c0-0.5-0.3-0.9-0.6-1.2c-0.5-0.5-0.8-0.5-1,0c-0.2,0.5-0.3,1.1-0.4,1.9c-0.1,0.8-0.1,1.6-0.1,2.4c0,0.8,0,1.3-0.1,1.5
		c-0.3,0.8-0.6,1.6-0.9,2.5c-0.3,0.9-0.5,1.8-0.4,2.7c0.1,1,0.3,2,0.5,2.9s0.3,1.9,0.1,3.1c-0.1,0.6-0.2,1.1-0.3,1.5
		s-0.3,0.9-0.6,1.4c-0.3,0.6-0.5,1.1-0.5,1.6s0,1,0.1,1.7c0,0.4,0.1,0.9,0.1,1.5s-0.1,1.2-0.2,1.7s-0.4,0.9-0.8,1.1
		c-0.4,0.2-0.8,0-1.4-0.6c-0.3-0.3-0.5-0.7-0.6-1.2c-0.1-0.5-0.1-1-0.1-1.6c0-0.6,0-1.1,0-1.7c0-0.6,0-1.1-0.2-1.5
		c-0.2-0.6-0.3-1.1-0.4-1.5c-0.1-0.5-0.1-1,0-1.6c0.1-0.6,0.2-1.3,0.3-1.9c0.1-0.6,0.2-1.3,0.3-1.9c0.1-0.5,0.2-1.1,0.3-1.8
		c0.1-0.7,0-1.3-0.3-1.8c-0.4-0.8-0.8-1.5-1.2-2.3c-0.4-0.7-1-1.4-1.6-2.1c-0.5-0.5-1.1-0.9-1.8-1.3c-0.6-0.3-1.2-0.8-1.6-1.5
		c-0.4-0.6-0.7-1.2-0.9-2c-0.2-0.7-0.3-1.4-0.3-2.2c0-0.8,0-1.5,0-2.3c0.1-0.8,0.1-1.5,0.2-2.2c0.1-1.1,0.2-2.2,0.4-3.3
		c0.2-1.1,0.2-2.2,0.2-3.4c0-1.1-0.1-2.3-0.2-3.4c-0.2-1.1-0.1-2.3,0-3.4c0.2-1.1,0.4-2.2,0.6-3.4c0.2-1.1,0.2-2.3-0.1-3.4
		c-0.1-0.5-0.3-1.1-0.4-1.7c-0.1-0.6-0.2-1.2-0.2-1.7c0-0.4,0.1-0.9,0.2-1.3c0.1-0.5,0.3-1,0.3-1.5c0.1-0.5,0.1-1,0.1-1.5
		s-0.3-0.8-0.6-1.2c-0.5-0.4-0.9-0.6-1.3-0.5c-0.4,0.1-0.7,0.3-1,0.7c-0.3,0.4-0.5,0.8-0.6,1.3c-0.1,0.5-0.2,0.9-0.2,1.3
		c0,0.5,0,0.9,0.1,1.4c0.1,0.5,0.1,0.9,0,1.4c-0.1,0.4-0.2,0.8-0.4,1.2c-0.2,0.4-0.4,0.8-0.5,1.2c-0.2,0.4-0.4,0.8-0.7,1.2
		c-0.3,0.4-0.5,0.7-0.7,1.1c-0.3,0.5-0.5,0.9-0.5,1.3c0,0.3,0,0.8-0.1,1.4c-0.1,0.6-0.4,1.1-0.8,1.4c-0.4,0.3-0.8,0.5-1.2,0.5
		c-0.5,0-0.9-0.1-1.3-0.4C8.2,42.9,8,42.5,7.8,42c-0.1-0.4-0.2-0.8-0.2-1.3c0-0.5-0.1-0.9-0.2-1.4C7.3,38.8,7.1,38.4,7,38
		c-0.2-0.4-0.3-0.9-0.3-1.4c0-1.1-0.2-2-0.5-2.7c-0.1-0.2-0.2-0.4-0.3-0.5c-0.1-0.2-0.3-0.4-0.3-0.6c-0.1-0.2-0.1-0.5-0.1-0.7
		c0-0.2,0-0.4-0.1-0.6c-0.1-0.4-0.4-0.7-0.8-0.9c-0.4-0.2-0.7-0.5-0.9-0.9C3.2,28.8,3.1,28,3.5,27c0.1-0.5,0.2-0.8,0.4-1.1
		c0.2-0.3,0.4-0.6,0.4-1c0.1-0.4,0.2-0.8,0.2-1.3C4.7,23,4.7,22.5,4.6,22.2z"/>
	<path d="M58,21.8c0-0.5,0-1.2,0-1.9c0-0.7,0-1.4,0.1-2.2c0-0.8,0.1-1.5,0.2-2.2c0.1-0.7,0.3-1.3,0.6-1.8c0.8-1.4,1.9-2.5,3.3-3.4
		C63.5,9.6,65,9,66.5,8.6C68.1,8.2,69.7,8,71.4,8c1.7,0,3.3,0,4.8,0c0.7,0,1.4,0.2,2.2,0.3c0.8,0.2,1.5,0.4,2.2,0.7
		c0.7,0.3,1.4,0.6,2,1c0.6,0.3,1.2,0.7,1.8,1c0.6,0.4,1.3,0.7,1.8,1c0.6,0.3,1.1,0.7,1.6,1.1c0.4,0.3,0.7,0.6,0.9,0.9
		c0.3,0.3,0.5,0.6,0.9,0.9c0.4,0.2,0.7,0.4,1.1,0.5c0.4,0.1,0.7,0.3,1.1,0.5c0.3,0.2,0.6,0.5,0.9,0.9c0.3,0.4,0.5,0.8,0.6,1.2
		c0.4,0.8,0.5,1.6,0.2,2.5c-0.1,0.4-0.3,0.8-0.5,1.2c-0.2,0.4-0.5,0.7-0.8,1.1c-0.3,0.4-0.5,0.7-0.8,1.1c-0.3,0.4-0.4,0.8-0.5,1.2
		c-0.2,0.8-0.3,1.5-0.3,2.3s-0.1,1.5-0.3,2.3c-0.1,0.3-0.3,0.5-0.5,0.8c-0.3,0.3-0.6,0.3-1,0.2c-0.3-0.1-0.5-0.4-0.6-0.7
		c-0.1-0.3-0.2-0.6-0.3-0.9c-0.2-0.5-0.3-0.8-0.4-0.9c-0.1-0.1-0.4-0.2-0.9-0.4c-0.4-0.1-0.6-0.3-0.8-0.4c-0.2-0.1-0.3-0.3-0.5-0.6
		c-0.4-0.8-0.9-1.5-1.5-2.3c-0.6-0.8-1.3-1.4-2-2c-0.7-0.6-1.5-1-2.4-1.3c-0.9-0.3-1.8-0.4-2.7-0.2c-0.9,0.1-1.5,0.5-1.8,1
		c-0.3,0.5-0.1,1.2,0.5,2c0.5,0.7,1.2,1.3,2.2,1.7c0.9,0.4,1.8,0.7,2.6,1.1c1,0.4,1.9,0.8,2.6,1.4c0.7,0.6,1.4,1.2,2.2,1.9
		c0.9,0.8,1.7,1.6,2.6,2.4c0.8,0.8,1.6,1.7,2.2,2.7c0.3,0.4,0.6,0.8,0.8,1.2c0.2,0.4,0.5,0.9,0.7,1.3c0.3,0.6,0.6,1.3,0.9,2
		c0.3,0.7,0.6,1.4,1,2c0.5,1,1,1.8,1.5,2.6c0.5,0.8,0.8,1.7,0.8,2.9c0,0.9-0.1,1.8-0.4,2.5c-0.3,0.8-0.6,1.6-0.8,2.4
		c-0.2,0.9-0.5,1.8-0.9,2.6c-0.3,0.8-0.7,1.6-1.1,2.4c-0.4,0.7-0.7,1.4-1,2.2c-0.3,0.8-0.7,1.5-1.2,2.1c-0.5,0.7-1,1.4-1.4,2.2
		s-0.9,1.5-1.4,2.2c-0.5,0.9-0.9,1.7-1.1,2.4c-0.2,0.7-0.4,1.6-0.6,2.6c0,0.2-0.1,0.6-0.2,1.1c-0.1,0.5-0.2,0.8-0.4,1
		c-0.3,0.1-0.5,0.2-0.7,0.1c-0.2-0.1-0.3-0.2-0.4-0.4c-0.1-0.2-0.2-0.4-0.3-0.6c-0.1-0.2-0.2-0.4-0.2-0.5c-0.1-0.4-0.2-0.8-0.2-1.2
		c0-0.4-0.1-0.8-0.4-1.1c-0.3-0.4-0.6-0.6-0.9-0.7c-0.3-0.1-0.7,0-1,0.1c-0.3,0.1-0.7,0.3-0.9,0.6c-0.3,0.3-0.5,0.6-0.7,0.9
		c-0.4,0.6-0.6,1.3-0.7,2.1c-0.1,0.7-0.2,1.4-0.4,2.1c-0.2,0.7-0.5,1.3-0.8,1.8c-0.3,0.5-0.6,1-0.9,1.7c-0.3,0.6-0.5,1.3-0.4,2
		c0,0.7,0.1,1.4,0.1,2.1c0.1,1.4,0.1,2.8-0.2,4.3c-0.1,0.3-0.2,0.7-0.4,1c-0.2,0.3-0.5,0.5-1,0.4c-0.5-0.1-0.7-0.3-0.8-0.7
		c-0.1-0.3-0.2-0.7-0.2-1.1c-0.1-0.8-0.1-1.7,0-2.5c0.2-0.8,0.3-1.7,0.3-2.6c0-0.9,0-1.8-0.1-2.6c-0.1-0.9-0.2-1.7-0.3-2.6
		c0-0.2,0-0.5,0-1s-0.1-1-0.1-1.6c-0.1-0.6-0.1-1.2-0.2-1.8c-0.1-0.6-0.2-1.2-0.3-1.8c-0.4-1.2-0.9-1.7-1.5-1.6
		c-0.2,0.1-0.4,0.2-0.5,0.4c-0.1,0.2-0.2,0.3-0.3,0.5c-0.1,0.2-0.3,0.3-0.4,0.4c-0.2,0.1-0.4,0.1-0.7,0c-0.6-0.1-0.9-0.4-1.1-0.9
		c-0.2-0.5-0.4-1-0.5-1.5c-0.3-0.6-0.5-1.1-0.8-1.7c-0.2-0.6-0.5-1.1-0.9-1.6c-0.5-0.6-1-1.2-1.5-1.8c-0.5-0.6-1.1-1.2-1.6-1.7
		c-0.7-0.8-1.3-1.6-1.8-2.3s-1-1.5-1.5-2.5c-0.5-0.9-1-1.6-1.6-2.3c-0.6-0.7-1.1-1.5-1.5-2.4c-0.3-0.5-0.6-1.1-0.9-1.7
		c-0.3-0.6-0.4-1.3-0.4-2c0-0.5,0.2-1.1,0.5-1.5c0.3-0.5,0.8-0.9,1.3-1.3c0.5-0.4,1-0.7,1.6-1c0.6-0.3,1.1-0.5,1.5-0.7
		c0.9-0.3,1.7-0.6,2.6-0.7s1.7-0.4,2.6-0.6c0.3,0,0.7-0.2,1-0.4c0.4-0.2,0.8-0.4,1.2-0.6c0.4-0.2,0.8-0.3,1.2-0.4
		c0.4-0.1,0.8-0.1,1.1,0.1c0.5,0.2,0.9,0.7,1.1,1.5c0.2,0.8,0.4,1.4,0.7,1.9c0.1,0.3,0.2,0.6,0.3,0.9c0.1,0.3,0.2,0.6,0.3,0.9
		c0.4,0.9,1,1.6,1.9,2.2s1.8,0.7,2.8,0.4c0.9-0.2,1.6-0.7,2.1-1.3c0.5-0.6,0.8-1.4,0.9-2.2c0.1-0.8,0-1.6-0.2-2.4
		c-0.2-0.8-0.5-1.6-1-2.2c-0.2-0.2-0.4-0.5-0.7-0.7c-0.3-0.3-0.5-0.5-0.7-0.7c-0.3-0.3-0.5-0.5-0.6-0.6c-0.1-0.2-0.2-0.3-0.4-0.3
		c-0.1-0.1-0.3-0.1-0.5-0.2c-0.2,0-0.4-0.1-0.8-0.1c-0.8-0.2-1.7-0.4-2.5-0.5c-0.9-0.2-1.7-0.4-2.6-0.6c-0.4-0.1-0.6-0.2-0.7-0.3
		c-0.1-0.1-0.2-0.2-0.3-0.3c-0.1-0.1-0.1-0.2-0.2-0.3c-0.1-0.1-0.3-0.3-0.6-0.5c-0.3-0.2-0.5-0.3-0.7-0.4c-0.2-0.1-0.3-0.1-0.4-0.1
		c-0.1,0-0.3,0-0.4,0c-0.2,0-0.4,0-0.6,0c-0.6-0.1-1.4-0.2-2.3-0.3c-0.9-0.1-1.7-0.4-2.3-0.7c-0.4-0.3-0.6-0.5-0.7-0.8
		c-0.1-0.3-0.2-0.6-0.2-0.9c0-0.3,0-0.7,0-1c0-0.4-0.1-0.8-0.3-1.2c-0.5-1.1-0.9-2.1-1.3-3C58.2,24.2,58,23.1,58,21.8z"/>
</g>
</svg>
